<svg id="Layer_1" data-name="Layer 1" xmlns="http://www.w3.org/2000/svg" viewBox="0 0 505.21 481.78"><defs><style>.cls-1{fill:#26a9e0;}</style></defs><path class="cls-1" d="M600.37,640.85c-92.31,0-167.41-75.1-167.41-167.42S508.06,306,600.37,306s167.42,75.09,167.42,167.41S692.69,640.85,600.37,640.85Zm0-303.09c-74.81,0-135.67,60.86-135.67,135.67s60.86,135.68,135.67,135.68,135.68-60.87,135.68-135.68S675.18,337.76,600.37,337.76Z" transform="translate(-347.4 -215.45)"/><path class="cls-1" d="M852.6,384.39a134.13,134.13,0,0,0-32.19-87.26,135.62,135.62,0,0,0-15.3-15.3,134.13,134.13,0,0,0-87.26-32.19H585.63v32.19H717.85A102.67,102.67,0,0,1,820.41,384.39V511.88H852.6Z" transform="translate(-347.4 -215.45)"/><path class="cls-1" d="M347.4,562.47a134.14,134.14,0,0,0,32.19,87.27A136.27,136.27,0,0,0,394.88,665a134.17,134.17,0,0,0,87.27,32.2H614.37V665H482.15A102.67,102.67,0,0,1,379.59,562.47V435H347.4Z" transform="translate(-347.4 -215.45)"/><path class="cls-1" d="M697.82,215.45c-16.64,0-30.12,3.83-30.12,8.54v20h60.23V224C727.93,219.28,714.44,215.45,697.82,215.45Z" transform="translate(-347.4 -215.45)"/></svg>